<svg xmlns="http://www.w3.org/2000/svg" width="1280" height="520" viewBox="0 0 1280 520">
<rect width="100%" height="100%" fill="#fafafa"/>
<text x="640" y="28" text-anchor="middle" font-size="22" font-family="Arial">Current PEBBLE vs OURS Training Reward</text>
<rect x="30" y="60" width="590" height="420" fill="white" stroke="#dddddd"/>
<text x="325.0" y="78" text-anchor="middle" font-size="16" font-family="Arial">Walker</text>
<line x1="94.0" y1="88.0" x2="94.0" y2="438.0" stroke="#eeeeee"/>
<line x1="94.0" y1="88.0" x2="604.0" y2="88.0" stroke="#eeeeee"/>
<line x1="221.5" y1="88.0" x2="221.5" y2="438.0" stroke="#eeeeee"/>
<line x1="94.0" y1="175.5" x2="604.0" y2="175.5" stroke="#eeeeee"/>
<line x1="349.0" y1="88.0" x2="349.0" y2="438.0" stroke="#eeeeee"/>
<line x1="94.0" y1="263.0" x2="604.0" y2="263.0" stroke="#eeeeee"/>
<line x1="476.5" y1="88.0" x2="476.5" y2="438.0" stroke="#eeeeee"/>
<line x1="94.0" y1="350.5" x2="604.0" y2="350.5" stroke="#eeeeee"/>
<line x1="604.0" y1="88.0" x2="604.0" y2="438.0" stroke="#eeeeee"/>
<line x1="94.0" y1="438.0" x2="604.0" y2="438.0" stroke="#eeeeee"/>
<line x1="94.0" y1="438.0" x2="604.0" y2="438.0" stroke="#444"/>
<line x1="94.0" y1="88.0" x2="94.0" y2="438.0" stroke="#444"/>
<polyline fill="none" stroke="#1f77b4" stroke-width="2.5" points="94.0,409.6 96.6,410.1 99.2,411.0 101.8,412.1 104.4,413.0 106.9,413.6 109.5,413.9 112.1,413.1 114.7,412.5 117.3,411.5 119.9,352.1 122.5,346.0 125.1,340.6 127.7,323.0 130.2,313.5 132.8,305.9 135.4,304.9 138.0,297.6 140.6,285.0 143.2,290.8 145.8,288.5 148.4,282.1 151.0,282.9 153.5,280.1 156.1,285.1 158.7,284.8 161.3,274.9 163.9,276.6 166.5,276.8 169.1,274.7 171.7,366.1 174.3,396.5 176.8,359.5 179.4,345.9 182.0,338.6 184.6,338.0 187.2,330.0 189.8,333.5 192.4,332.0 195.0,338.8 197.6,327.4 200.1,332.1 202.7,327.1 205.3,341.7 207.9,326.4" />
<polyline fill="none" stroke="#d62728" stroke-width="2.5" points="94.0,409.6 96.6,410.1 99.2,411.0 101.8,412.1 104.4,413.0 106.9,413.6 109.5,413.9 112.1,413.1 114.7,412.5 117.3,411.5 119.9,247.1 122.5,352.6 125.1,222.5 127.7,219.7 130.2,239.0 132.8,232.4 135.4,194.6 138.0,270.3 140.6,176.4 143.2,260.0 145.8,250.2 148.4,176.2 151.0,175.1 153.5,234.3 156.1,228.1 158.7,174.2 161.3,177.0 163.9,170.9 166.5,176.1 169.1,161.9 171.7,207.6 174.3,200.1 176.8,190.9 179.4,188.2 182.0,161.8 184.6,192.4 187.2,190.6 189.8,251.9 192.4,209.0 195.0,199.8 197.6,164.3 200.1,179.4 202.7,161.1 205.3,168.5 207.9,197.1 210.5,163.8 213.1,196.3 215.7,163.2 218.3,177.2 220.9,152.7 223.4,301.7 226.0,275.4 228.6,233.2 231.2,232.9 233.8,257.4 236.4,218.1 239.0,228.0 241.6,217.8 244.2,230.0 246.7,214.5 249.3,210.1 251.9,205.4 254.5,206.9 257.1,213.0 259.7,253.4 262.3,235.4 264.9,211.6 267.5,205.3 270.0,211.0 272.6,210.4 275.2,232.6 277.8,264.7 280.4,221.0 283.0,211.3 285.6,212.9 288.2,215.4 290.8,242.1 293.3,221.0 295.9,202.5 298.5,210.9 301.1,194.5 303.7,189.3 306.3,198.7 308.9,212.8 311.5,210.1 314.1,217.1 316.6,193.7 319.2,194.6 321.8,186.9 324.4,188.5 327.0,215.3 329.6,199.1 332.2,208.6 334.8,196.7 337.4,187.7 339.9,198.7 342.5,199.8 345.1,205.3 347.7,187.1 350.3,190.2 352.9,199.4 355.5,178.4 358.1,189.7 360.6,173.7 363.2,234.1 365.8,181.5 368.4,168.5 371.0,172.3 373.6,174.1 376.2,170.2 378.8,175.0 381.4,207.8 383.9,189.9 386.5,169.6 389.1,174.2 391.7,175.8 394.3,181.4 396.9,173.6 399.5,165.6 402.1,168.8 404.7,168.3 407.2,162.9 409.8,170.2 412.4,175.5 415.0,152.0 417.6,154.6 420.2,159.9 422.8,158.4 425.4,174.1 428.0,170.9 430.5,241.3 433.1,215.2 435.7,272.1 438.3,228.6 440.9,217.4 443.5,209.3 446.1,221.4 448.7,194.7 451.3,189.3 453.8,198.4 456.4,199.1 459.0,200.1 461.6,187.4 464.2,179.7 466.8,183.4 469.4,182.6 472.0,185.4 474.6,199.6 477.1,174.1 479.7,179.8 482.3,174.8 484.9,172.6 487.5,178.3 490.1,164.9 492.7,171.0 495.3,175.3 497.9,155.1 500.4,162.9 503.0,142.8 505.6,147.7 508.2,150.2 510.8,148.9 513.4,141.1 516.0,144.0 518.6,166.4 521.2,147.0 523.7,140.3 526.3,156.4 528.9,146.9 531.5,142.6 534.1,126.7 536.7,129.6 539.3,137.8 541.9,132.8 544.5,125.6 547.0,127.8 549.6,126.6 552.2,127.8 554.8,129.8 557.4,118.9 560.0,112.1 562.6,122.0 565.2,122.7 567.8,130.1 570.3,123.0 572.9,117.8 575.5,134.1 578.1,127.4 580.7,125.8 583.3,145.1 585.9,128.0 588.5,136.2 591.1,125.9 593.6,131.2 596.2,132.4 598.8,139.0 601.4,146.8 604.0,126.5" />
<text x="94.0" y="458.0" text-anchor="middle" font-size="11" font-family="Arial">2k</text>
<text x="221.5" y="458.0" text-anchor="middle" font-size="11" font-family="Arial">51k</text>
<text x="349.0" y="458.0" text-anchor="middle" font-size="11" font-family="Arial">100k</text>
<text x="476.5" y="458.0" text-anchor="middle" font-size="11" font-family="Arial">149k</text>
<text x="604.0" y="458.0" text-anchor="middle" font-size="11" font-family="Arial">199k</text>
<text x="86.0" y="92.0" text-anchor="end" font-size="11" font-family="Arial">987</text>
<text x="86.0" y="179.5" text-anchor="end" font-size="11" font-family="Arial">732</text>
<text x="86.0" y="267.0" text-anchor="end" font-size="11" font-family="Arial">476</text>
<text x="86.0" y="354.5" text-anchor="end" font-size="11" font-family="Arial">221</text>
<text x="86.0" y="442.0" text-anchor="end" font-size="11" font-family="Arial">-33</text>
<line x1="494.0" y1="100.0" x2="520.0" y2="100.0" stroke="#1f77b4" stroke-width="2.5"/>
<text x="528.0" y="104.0" font-size="12" font-family="Arial">PEBBLE</text>
<line x1="494.0" y1="118.0" x2="520.0" y2="118.0" stroke="#d62728" stroke-width="2.5"/>
<text x="528.0" y="122.0" font-size="12" font-family="Arial">OURS</text>
<text x="325.0" y="472.0" text-anchor="middle" font-size="12" font-family="Arial">Environment Steps</text>
<text x="48.0" y="270.0" text-anchor="middle" font-size="12" font-family="Arial" transform="rotate(-90 48.0 270.0)">Episode Reward</text>
<rect x="660" y="60" width="590" height="420" fill="white" stroke="#dddddd"/>
<text x="955.0" y="78" text-anchor="middle" font-size="16" font-family="Arial">Door Open</text>
<line x1="724.0" y1="88.0" x2="724.0" y2="438.0" stroke="#eeeeee"/>
<line x1="724.0" y1="88.0" x2="1234.0" y2="88.0" stroke="#eeeeee"/>
<line x1="851.5" y1="88.0" x2="851.5" y2="438.0" stroke="#eeeeee"/>
<line x1="724.0" y1="175.5" x2="1234.0" y2="175.5" stroke="#eeeeee"/>
<line x1="979.0" y1="88.0" x2="979.0" y2="438.0" stroke="#eeeeee"/>
<line x1="724.0" y1="263.0" x2="1234.0" y2="263.0" stroke="#eeeeee"/>
<line x1="1106.5" y1="88.0" x2="1106.5" y2="438.0" stroke="#eeeeee"/>
<line x1="724.0" y1="350.5" x2="1234.0" y2="350.5" stroke="#eeeeee"/>
<line x1="1234.0" y1="88.0" x2="1234.0" y2="438.0" stroke="#eeeeee"/>
<line x1="724.0" y1="438.0" x2="1234.0" y2="438.0" stroke="#eeeeee"/>
<line x1="724.0" y1="438.0" x2="1234.0" y2="438.0" stroke="#444"/>
<line x1="724.0" y1="88.0" x2="724.0" y2="438.0" stroke="#444"/>
<polyline fill="none" stroke="#1f77b4" stroke-width="2.5" points="724.0,410.5 725.3,411.1 726.6,410.3 728.0,410.9 729.3,410.9 730.6,412.0 731.9,411.5 733.3,411.6 734.6,412.6 735.9,412.8 737.2,413.1 738.6,412.8 739.9,412.6 741.2,413.2 742.5,413.3 743.9,413.9 745.2,412.9 746.5,412.6 747.8,412.9 749.2,384.3 750.5,386.0 751.8,385.3 753.1,373.3 754.5,384.0 755.8,375.9 757.1,377.7 758.4,379.6 759.8,377.3 761.1,375.3 762.4,353.8 763.7,357.3 765.1,345.9 766.4,352.7 767.7,353.9 769.0,350.9 770.4,348.5 771.7,351.5 773.0,353.8 774.3,353.2 775.7,280.3 777.0,315.3 778.3,281.3 779.6,281.4 781.0,273.2 782.3,256.8 783.6,256.1 784.9,265.2 786.3,254.2 787.6,253.1 788.9,381.7 790.2,378.0 791.6,378.5 792.9,379.9 794.2,378.7 795.5,376.8 796.9,369.8 798.2,376.9 799.5,372.0 800.8,367.1 802.2,226.0 803.5,227.9 804.8,222.3 806.1,211.9 807.5,210.4 808.8,213.6 810.1,216.7 811.4,211.5 812.8,212.4 814.1,207.9 815.4,186.9 816.7,187.8 818.1,208.2 819.4,206.4 820.7,186.5 822.0,182.9 823.4,186.1 824.7,179.4 826.0,189.5 827.3,170.5 828.6,126.5 830.0,130.3 831.3,128.1 832.6,125.3 833.9,133.1 835.3,136.1 836.6,123.6 837.9,127.9 839.2,129.9 840.6,122.2 841.9,120.0 843.2,113.0 844.5,121.4 845.9,121.6 847.2,112.1 848.5,118.7 849.8,112.9 851.2,124.3 852.5,123.7 853.8,117.9 855.1,125.4 856.5,123.6 857.8,115.1 859.1,117.2 860.4,116.0 861.8,118.5 863.1,121.4 864.4,120.5 865.7,124.3 867.1,121.3 868.4,141.5 869.7,142.8 871.0,138.2 872.4,143.8 873.7,141.3 875.0,140.7 876.3,138.3 877.7,145.2 879.0,139.3 880.3,140.8 881.6,223.1 883.0,215.4 884.3,218.9 885.6,215.0 886.9,215.6 888.3,210.7 889.6,214.5 890.9,210.2 892.2,210.3 893.6,214.1 894.9,261.2 896.2,269.3 897.5,266.0 898.9,267.2 900.2,263.0 901.5,259.4 902.8,260.5 904.2,255.8 905.5,260.9 906.8,257.1 908.1,238.5 909.5,226.7 910.8,225.3 912.1,223.0 913.4,223.5 914.8,222.1 916.1,226.5 917.4,226.8 918.7,220.0 920.1,218.7 921.4,246.8 922.7,246.3 924.0,246.7 925.4,239.7 926.7,246.3 928.0,245.2 929.3,244.6 930.6,242.7 932.0,235.7 933.3,243.8 934.6,261.3 935.9,288.9 937.3,280.9 938.6,283.6 939.9,279.0 941.2,275.2 942.6,273.5 943.9,272.3 945.2,272.8 946.5,273.1 947.9,278.8 949.2,266.8 950.5,240.1 951.8,294.3 953.2,285.8 954.5,274.8 955.8,257.3 957.1,274.4 958.5,256.9 959.8,266.3 961.1,265.6 962.4,259.6 963.8,258.6 965.1,287.3 966.4,274.3 967.7,250.6 969.1,217.3 970.4,266.4 971.7,269.6 973.0,280.5 974.4,241.5 975.7,256.7 977.0,228.7 978.3,252.2 979.7,270.8 981.0,256.1 982.3,241.5 983.6,257.3 985.0,248.4 986.3,249.2 987.6,227.4 988.9,238.9 990.3,238.6 991.6,238.2 992.9,248.1 994.2,233.0 995.6,225.7 996.9,232.5 998.2,239.8 999.5,228.8 1000.9,228.5 1002.2,228.0 1003.5,213.0 1004.8,215.3 1006.2,220.8 1007.5,212.3 1008.8,189.1 1010.1,218.3 1011.5,194.1 1012.8,238.4 1014.1,234.0 1015.4,223.1 1016.8,232.6 1018.1,221.6 1019.4,242.4 1020.7,239.2 1022.1,218.7 1023.4,222.2 1024.7,224.2 1026.0,238.9 1027.4,214.8 1028.7,263.8 1030.0,273.5 1031.3,272.2 1032.6,263.5 1034.0,249.9 1035.3,251.3 1036.6,270.5 1037.9,221.9 1039.3,216.7 1040.6,245.0 1041.9,255.2 1043.2,233.2 1044.6,213.4 1045.9,209.6 1047.2,236.0 1048.5,271.9 1049.9,196.6 1051.2,239.3 1052.5,217.8 1053.8,226.3 1055.2,224.6 1056.5,194.9 1057.8,193.5 1059.1,219.7 1060.5,219.8 1061.8,329.3 1063.1,221.0 1064.4,218.3 1065.8,277.1 1067.1,284.3 1068.4,195.0 1069.7,205.8 1071.1,201.8 1072.4,213.0 1073.7,200.7 1075.0,198.6 1076.4,198.2 1077.7,197.9 1079.0,219.3 1080.3,225.6 1081.7,312.1 1083.0,207.4 1084.3,211.1 1085.6,208.9 1087.0,220.5 1088.3,201.3 1089.6,143.5 1090.9,197.6 1092.3,198.5 1093.6,186.5 1094.9,172.3 1096.2,179.2 1097.6,168.4 1098.9,175.3 1100.2,174.9 1101.5,172.1 1102.9,193.4 1104.2,177.5 1105.5,213.8 1106.8,246.7 1108.2,255.8 1109.5,266.4 1110.8,265.7 1112.1,235.9 1113.5,265.7 1114.8,237.7 1116.1,262.5 1117.4,242.7 1118.8,269.1 1120.1,279.3 1121.4,273.7 1122.7,292.4 1124.1,237.7 1125.4,231.9 1126.7,241.7 1128.0,234.3 1129.4,234.6 1130.7,207.9 1132.0,225.2 1133.3,286.3 1134.6,211.3 1136.0,243.4 1137.3,296.9 1138.6,295.9 1139.9,227.8 1141.3,233.3 1142.6,259.5 1143.9,248.8 1145.2,249.7 1146.6,222.8 1147.9,272.6 1149.2,249.3 1150.5,249.8 1151.9,272.6 1153.2,243.6 1154.5,242.9 1155.8,265.2 1157.2,255.3 1158.5,236.7 1159.8,285.7 1161.1,273.2 1162.5,281.8 1163.8,271.7 1165.1,268.1 1166.4,262.3 1167.8,287.3 1169.1,270.7 1170.4,368.4 1171.7,278.1 1173.1,212.5 1174.4,265.7 1175.7,234.3 1177.0,296.6 1178.4,233.8 1179.7,213.3 1181.0,267.3 1182.3,260.4 1183.7,256.5 1185.0,243.4 1186.3,317.9 1187.6,288.1 1189.0,218.2 1190.3,280.1 1191.6,277.2 1192.9,219.0 1194.3,285.8 1195.6,288.1 1196.9,246.4 1198.2,302.0 1199.6,232.9 1200.9,228.9 1202.2,292.4 1203.5,228.2 1204.9,225.9 1206.2,293.6 1207.5,231.4 1208.8,280.6 1210.2,302.3 1211.5,279.6 1212.8,279.9 1214.1,241.1 1215.5,340.4 1216.8,291.0 1218.1,298.6 1219.4,256.3 1220.8,277.2 1222.1,233.7 1223.4,283.8 1224.7,250.4 1226.1,194.2 1227.4,233.6 1228.7,198.8 1230.0,218.4" />
<polyline fill="none" stroke="#d62728" stroke-width="2.5" points="724.0,400.0 725.3,400.6 726.6,400.6 728.0,400.4 729.3,399.9 730.6,400.5 731.9,400.5 733.3,400.0 734.6,399.6 735.9,400.1 737.2,400.4 738.6,400.2 739.9,399.6 741.2,399.6 742.5,400.1 743.9,399.8 745.2,399.7 746.5,399.9 747.8,400.2 749.2,310.2 750.5,315.1 751.8,309.0 753.1,315.4 754.5,305.2 755.8,309.8 757.1,306.5 758.4,310.5 759.8,310.8 761.1,308.5 762.4,194.2 763.7,193.5 765.1,190.1 766.4,191.8 767.7,191.6 769.0,189.9 770.4,185.1 771.7,184.4 773.0,183.9 774.3,187.1 775.7,139.3 777.0,137.8 778.3,137.3 779.6,134.3 781.0,133.9 782.3,135.3 783.6,132.3 784.9,134.6 786.3,131.2 787.6,130.2 788.9,178.4 790.2,181.0 791.6,178.0 792.9,178.0 794.2,176.5 795.5,175.8 796.9,178.1 798.2,175.7 799.5,175.2 800.8,171.8 802.2,300.7 803.5,294.8 804.8,297.6 806.1,293.8 807.5,295.2 808.8,297.7 810.1,296.4 811.4,293.8 812.8,296.2 814.1,289.8 815.4,239.8 816.7,240.6 818.1,242.1 819.4,243.9 820.7,235.9 822.0,233.2 823.4,242.6 824.7,237.5 826.0,236.5 827.3,242.0 828.6,196.2 830.0,191.1 831.3,184.5 832.6,184.5 833.9,187.6 835.3,187.5 836.6,186.0 837.9,191.9 839.2,190.9 840.6,191.7 841.9,205.6 843.2,205.0 844.5,235.4 845.9,184.7 847.2,195.8 848.5,200.6 849.8,195.8 851.2,192.1 852.5,191.3 853.8,190.4 855.1,217.3 856.5,226.9 857.8,226.1 859.1,212.2 860.4,205.9 861.8,219.5 863.1,214.1 864.4,226.1 865.7,215.5 867.1,217.9 868.4,223.7 869.7,220.7 871.0,212.1 872.4,211.1 873.7,221.8 875.0,208.0 876.3,214.8 877.7,214.9 879.0,216.2 880.3,212.7 881.6,275.7 883.0,271.8 884.3,281.2 885.6,285.5 886.9,272.9 888.3,281.8 889.6,278.0 890.9,281.1 892.2,276.6 893.6,279.7 894.9,331.2 896.2,331.8 897.5,335.4 898.9,329.0 900.2,323.6 901.5,326.2 902.8,329.6 904.2,327.6 905.5,322.3 906.8,321.4 908.1,263.1 909.5,240.7 910.8,228.5 912.1,227.3 913.4,227.3 914.8,234.5 916.1,233.0 917.4,240.0 918.7,229.7 920.1,242.5 921.4,284.0 922.7,278.4 924.0,279.0 925.4,281.3 926.7,282.7 928.0,286.3 929.3,283.3 930.6,282.2 932.0,282.6 933.3,294.2 934.6,268.6 935.9,268.2 937.3,258.7 938.6,273.4 939.9,268.1 941.2,261.8 942.6,270.9 943.9,268.2 945.2,265.7 946.5,260.0 947.9,202.1 949.2,215.5 950.5,206.0 951.8,217.2 953.2,210.1 954.5,203.3 955.8,203.3 957.1,200.3 958.5,213.5 959.8,200.8 961.1,192.9 962.4,193.3 963.8,192.3 965.1,185.6 966.4,186.7 967.7,190.6 969.1,186.7 970.4,183.8 971.7,188.6 973.0,189.6 974.4,190.4 975.7,186.2 977.0,186.0 978.3,197.9 979.7,199.0 981.0,187.5 982.3,190.9 983.6,186.4 985.0,196.2 986.3,187.2 987.6,202.5 988.9,201.2 990.3,198.8 991.6,227.1 992.9,190.0 994.2,213.3 995.6,207.1 996.9,195.7 998.2,189.8 999.5,194.7 1000.9,212.3 1002.2,203.7 1003.5,210.5 1004.8,195.2 1006.2,216.8 1007.5,205.4 1008.8,209.5 1010.1,215.2 1011.5,194.4 1012.8,210.6 1014.1,213.3 1015.4,229.7 1016.8,212.8 1018.1,210.3 1019.4,233.0 1020.7,222.6 1022.1,235.4 1023.4,221.0 1024.7,234.6 1026.0,217.8 1027.4,246.1 1028.7,235.3 1030.0,253.4 1031.3,252.4 1032.6,243.7 1034.0,243.9 1035.3,242.5 1036.6,244.3 1037.9,253.2 1039.3,244.2 1040.6,273.7 1041.9,257.9 1043.2,262.3 1044.6,259.6 1045.9,276.7 1047.2,271.9 1048.5,262.4 1049.9,257.7 1051.2,261.9 1052.5,272.3 1053.8,281.4 1055.2,278.7 1056.5,267.3 1057.8,274.2 1059.1,268.0 1060.5,279.3 1061.8,266.3 1063.1,270.6 1064.4,279.5 1065.8,271.6 1067.1,257.4 1068.4,271.6 1069.7,272.1 1071.1,252.9 1072.4,263.0 1073.7,237.4 1075.0,254.2 1076.4,255.2 1077.7,253.5 1079.0,235.3 1080.3,257.6 1081.7,251.5 1083.0,240.3 1084.3,238.3 1085.6,224.9 1087.0,241.6 1088.3,229.6 1089.6,224.9 1090.9,245.8 1092.3,225.1 1093.6,222.8 1094.9,232.4 1096.2,231.5 1097.6,219.6 1098.9,227.0 1100.2,228.2 1101.5,233.2 1102.9,222.1 1104.2,220.1 1105.5,228.6 1106.8,237.9 1108.2,229.7 1109.5,223.0 1110.8,230.1 1112.1,235.9 1113.5,224.4 1114.8,227.5 1116.1,216.7 1117.4,213.4 1118.8,227.8 1120.1,216.8 1121.4,211.9 1122.7,227.7 1124.1,207.8 1125.4,211.4 1126.7,227.7 1128.0,223.2 1129.4,205.5 1130.7,202.1 1132.0,211.2 1133.3,241.8 1134.6,244.2 1136.0,232.5 1137.3,233.6 1138.6,224.0 1139.9,222.0 1141.3,233.9 1142.6,222.8 1143.9,232.5 1145.2,238.7 1146.6,206.5 1147.9,234.9 1149.2,234.2 1150.5,223.7 1151.9,245.8 1153.2,241.7 1154.5,245.5 1155.8,236.1 1157.2,220.8 1158.5,248.0 1159.8,224.8 1161.1,244.1 1162.5,224.1 1163.8,237.3 1165.1,230.3 1166.4,212.6 1167.8,221.6 1169.1,211.2 1170.4,222.8 1171.7,231.7 1173.1,223.5 1174.4,216.8 1175.7,216.6 1177.0,217.9 1178.4,215.2 1179.7,203.4 1181.0,205.4 1182.3,203.6 1183.7,202.4 1185.0,181.5 1186.3,175.6 1187.6,177.8 1189.0,196.0 1190.3,177.4 1191.6,179.8 1192.9,171.5 1194.3,169.4 1195.6,169.7 1196.9,181.2 1198.2,178.8 1199.6,210.6 1200.9,198.8 1202.2,210.4 1203.5,204.3 1204.9,216.4 1206.2,220.9 1207.5,195.4 1208.8,209.2 1210.2,213.2 1211.5,205.0 1212.8,257.1 1214.1,248.2 1215.5,254.3 1216.8,244.7 1218.1,253.4 1219.4,246.3 1220.8,249.3 1222.1,214.0 1223.4,206.1 1224.7,225.6 1226.1,219.5 1227.4,226.3 1228.7,228.2 1230.0,243.6 1231.4,202.1 1232.7,203.5 1234.0,202.0" />
<text x="724.0" y="458.0" text-anchor="middle" font-size="11" font-family="Arial">1k</text>
<text x="851.5" y="458.0" text-anchor="middle" font-size="11" font-family="Arial">49k</text>
<text x="979.0" y="458.0" text-anchor="middle" font-size="11" font-family="Arial">97k</text>
<text x="1106.5" y="458.0" text-anchor="middle" font-size="11" font-family="Arial">145k</text>
<text x="1234.0" y="458.0" text-anchor="middle" font-size="11" font-family="Arial">194k</text>
<text x="716.0" y="92.0" text-anchor="end" font-size="11" font-family="Arial">238</text>
<text x="716.0" y="179.5" text-anchor="end" font-size="11" font-family="Arial">170</text>
<text x="716.0" y="267.0" text-anchor="end" font-size="11" font-family="Arial">103</text>
<text x="716.0" y="354.5" text-anchor="end" font-size="11" font-family="Arial">35</text>
<text x="716.0" y="442.0" text-anchor="end" font-size="11" font-family="Arial">-31</text>
<line x1="1124.0" y1="100.0" x2="1150.0" y2="100.0" stroke="#1f77b4" stroke-width="2.5"/>
<text x="1158.0" y="104.0" font-size="12" font-family="Arial">PEBBLE</text>
<line x1="1124.0" y1="118.0" x2="1150.0" y2="118.0" stroke="#d62728" stroke-width="2.5"/>
<text x="1158.0" y="122.0" font-size="12" font-family="Arial">OURS</text>
<text x="955.0" y="472.0" text-anchor="middle" font-size="12" font-family="Arial">Environment Steps</text>
<text x="678.0" y="270.0" text-anchor="middle" font-size="12" font-family="Arial" transform="rotate(-90 678.0 270.0)">Episode Reward</text>
</svg>