<svg xmlns="http://www.w3.org/2000/svg" width="720" height="420" viewBox="0 0 720 420">
<rect width="100%" height="100%" fill="#fafafa"/>
<text x="360" y="26" text-anchor="middle" font-size="22" font-family="Arial">Walker OURS Eval Episode Reward</text>
<line x1="70.0" y1="40.0" x2="70.0" y2="365.0" stroke="#eeeeee"/>
<line x1="70.0" y1="40.0" x2="700.0" y2="40.0" stroke="#eeeeee"/>
<line x1="227.5" y1="40.0" x2="227.5" y2="365.0" stroke="#eeeeee"/>
<line x1="70.0" y1="121.2" x2="700.0" y2="121.2" stroke="#eeeeee"/>
<line x1="385.0" y1="40.0" x2="385.0" y2="365.0" stroke="#eeeeee"/>
<line x1="70.0" y1="202.5" x2="700.0" y2="202.5" stroke="#eeeeee"/>
<line x1="542.5" y1="40.0" x2="542.5" y2="365.0" stroke="#eeeeee"/>
<line x1="70.0" y1="283.8" x2="700.0" y2="283.8" stroke="#eeeeee"/>
<line x1="700.0" y1="40.0" x2="700.0" y2="365.0" stroke="#eeeeee"/>
<line x1="70.0" y1="365.0" x2="700.0" y2="365.0" stroke="#eeeeee"/>
<line x1="70.0" y1="365.0" x2="700.0" y2="365.0" stroke="#444"/>
<line x1="70.0" y1="40.0" x2="70.0" y2="365.0" stroke="#444"/>
<polyline fill="none" stroke="#d62728" stroke-width="2.5" points="70.0,251.9 105.0,342.6 140.0,336.6 175.0,327.0 210.0,306.5 245.0,283.1 280.0,277.5 315.0,239.3 350.0,212.2 385.0,222.1 420.0,152.6 455.0,113.8 490.0,114.7 525.0,156.6 560.0,80.7 595.0,101.3 630.0,93.7 665.0,62.4 700.0,78.1" />
<text x="70.0" y="387.0" text-anchor="middle" font-size="11" font-family="Arial">10k</text>
<text x="62.0" y="44.0" text-anchor="end" font-size="11" font-family="Arial">452</text>
<text x="227.5" y="387.0" text-anchor="middle" font-size="11" font-family="Arial">55k</text>
<text x="62.0" y="125.2" text-anchor="end" font-size="11" font-family="Arial">339</text>
<text x="385.0" y="387.0" text-anchor="middle" font-size="11" font-family="Arial">100k</text>
<text x="62.0" y="206.5" text-anchor="end" font-size="11" font-family="Arial">227</text>
<text x="542.5" y="387.0" text-anchor="middle" font-size="11" font-family="Arial">145k</text>
<text x="62.0" y="287.8" text-anchor="end" font-size="11" font-family="Arial">115</text>
<text x="700.0" y="387.0" text-anchor="middle" font-size="11" font-family="Arial">190k</text>
<text x="62.0" y="369.0" text-anchor="end" font-size="11" font-family="Arial">3</text>
<text x="360.0" y="408.0" text-anchor="middle" font-size="12" font-family="Arial">Environment Steps</text>
<text x="20" y="210.0" text-anchor="middle" font-size="12" font-family="Arial" transform="rotate(-90 20 210.0)">Eval Episode Reward</text>
</svg>