<svg xmlns="http://www.w3.org/2000/svg" width="860" height="460" viewBox="0 0 860 460">
<rect width="100%" height="100%" fill="#fafafa"/>
<text x="430" y="30" text-anchor="middle" font-size="22" font-family="Arial">Walker Training Episode Reward: PEBBLE vs OURS (0-200k)</text>
<line x1="78.0" y1="44.0" x2="78.0" y2="400.0" stroke="#eeeeee"/>
<line x1="78.0" y1="44.0" x2="836.0" y2="44.0" stroke="#eeeeee"/>
<line x1="267.5" y1="44.0" x2="267.5" y2="400.0" stroke="#eeeeee"/>
<line x1="78.0" y1="133.0" x2="836.0" y2="133.0" stroke="#eeeeee"/>
<line x1="457.0" y1="44.0" x2="457.0" y2="400.0" stroke="#eeeeee"/>
<line x1="78.0" y1="222.0" x2="836.0" y2="222.0" stroke="#eeeeee"/>
<line x1="646.5" y1="44.0" x2="646.5" y2="400.0" stroke="#eeeeee"/>
<line x1="78.0" y1="311.0" x2="836.0" y2="311.0" stroke="#eeeeee"/>
<line x1="836.0" y1="44.0" x2="836.0" y2="400.0" stroke="#eeeeee"/>
<line x1="78.0" y1="400.0" x2="836.0" y2="400.0" stroke="#eeeeee"/>
<line x1="78.0" y1="400.0" x2="836.0" y2="400.0" stroke="#444"/>
<line x1="78.0" y1="44.0" x2="78.0" y2="400.0" stroke="#444"/>
<polyline fill="none" stroke="#1f77b4" stroke-width="2.5" points="85.6,371.1 89.4,371.6 93.2,372.5 97.0,373.7 100.7,374.6 104.5,375.2 108.3,375.4 112.1,374.6 115.9,374.1 119.7,373.1 123.5,312.6 127.3,306.4 131.1,300.9 134.8,283.0 138.6,273.4 142.4,265.6 146.2,264.6 150.0,257.2 153.8,244.4 157.6,250.2 161.4,248.0 165.2,241.5 169.0,242.2 172.8,239.4 176.5,244.4 180.3,244.2 184.1,234.1 187.9,235.9 191.7,236.0 195.5,233.9 199.3,326.9 203.1,357.8 206.9,320.1 210.7,306.3 214.4,298.9 218.2,298.3 222.0,290.2 225.8,293.7 229.6,292.2 233.4,299.1 237.2,287.5 241.0,292.3 244.8,287.2 248.6,302.0 252.3,286.5 256.1,305.9 259.9,281.4 263.7,278.4 267.5,312.1 271.3,280.3 275.1,266.7 278.9,256.7 282.7,242.0 286.5,253.5 290.2,261.6 294.0,253.9 297.8,250.4 301.6,251.2 305.4,236.5 309.2,242.0 313.0,246.2 316.8,237.4 320.6,244.9 324.4,247.6 328.1,246.3 331.9,235.8 335.7,239.0 339.5,243.3 343.3,245.5 347.1,227.9 350.9,273.0 354.7,271.1 358.5,270.1 362.2,274.0 366.0,267.4 369.8,269.6 373.6,271.3 377.4,266.2 381.2,268.6 385.0,264.8 388.8,271.7 392.6,280.4 396.4,268.3 400.1,273.7 403.9,270.3 407.7,265.8 411.5,272.2 415.3,264.7 419.1,261.5 422.9,263.4 426.7,327.1 430.5,320.6 434.3,320.1 438.1,323.9 441.8,320.5 445.6,323.6 449.4,325.0 453.2,319.3 457.0,340.2 460.8,314.6 464.6,321.3 468.4,317.8 472.2,318.6 475.9,315.4 479.7,306.9 483.5,316.2 487.3,312.3 491.1,327.4 494.9,305.4 498.7,302.3 502.5,356.5 506.3,354.1 510.1,348.8 513.8,339.7 517.6,337.4 521.4,349.5 525.2,338.0 529.0,332.9 532.8,341.1 536.6,346.1 540.4,322.4 544.2,323.6 548.0,341.5 551.8,334.0 555.5,317.6 559.3,311.9 563.1,316.9 566.9,325.1 570.7,313.1 574.5,318.8 578.3,291.8 582.1,303.0 585.9,311.6 589.7,322.7 593.4,297.0 597.2,303.8 601.0,302.9 604.8,291.5 608.6,290.9 612.4,307.1 616.2,304.9 620.0,295.4 623.8,305.8 627.5,281.1 631.3,288.9 635.1,278.9 638.9,278.4 642.7,280.4 646.5,289.1 650.3,289.0 654.1,249.5 657.9,258.3 661.7,266.0 665.5,249.9 669.2,280.3 673.0,263.6 676.8,248.9 680.6,267.3 684.4,257.4 688.2,242.6 692.0,261.6 695.8,256.9 699.6,244.8 703.4,247.1 707.1,248.1 710.9,252.7 714.7,251.0 718.5,246.4 722.3,260.3 726.1,246.9 729.9,227.1 733.7,224.3 737.5,233.6 741.2,223.3 745.0,214.6 748.8,221.0 752.6,217.3 756.4,218.3 760.2,209.7 764.0,226.1 767.8,210.5 771.6,212.2 775.4,210.3 779.1,217.8 782.9,212.1 786.7,204.0 790.5,211.5 794.3,206.4 798.1,220.8 801.9,229.5 805.7,199.5 809.5,200.1 813.3,202.3 817.0,201.9 820.8,200.1 824.6,187.0 828.4,193.3 832.2,193.4 836.0,187.8" />
<polyline fill="none" stroke="#d62728" stroke-width="2.5" points="85.6,371.1 89.4,371.6 93.2,372.5 97.0,373.7 100.7,374.6 104.5,375.2 108.3,375.4 112.1,374.6 115.9,374.1 119.7,373.1 123.5,205.8 127.3,313.1 131.1,180.8 134.8,178.0 138.6,197.6 142.4,190.9 146.2,152.4 150.0,229.4 153.8,133.9 157.6,219.0 161.4,209.0 165.2,133.7 169.0,132.6 172.8,192.9 176.5,186.5 180.3,131.7 184.1,134.6 187.9,128.3 191.7,133.6 195.5,119.1 199.3,165.7 203.1,158.0 206.9,148.7 210.7,145.9 214.4,119.0 218.2,150.2 222.0,148.3 225.8,210.7 229.6,167.1 233.4,157.8 237.2,121.6 241.0,136.9 244.8,118.3 248.6,125.9 252.3,155.0 256.1,121.1 259.9,154.1 263.7,120.5 267.5,134.8 271.3,109.8 275.1,261.3 278.9,234.6 282.7,191.7 286.5,191.3 290.2,216.3 294.0,176.3 297.8,186.4 301.6,176.1 305.4,188.4 309.2,172.7 313.0,168.2 316.8,163.4 320.6,165.0 324.4,171.1 328.1,212.2 331.9,193.9 335.7,169.7 339.5,163.3 343.3,169.1 347.1,168.5 350.9,191.0 354.7,223.7 358.5,179.3 362.2,169.4 366.0,171.1 369.8,173.6 373.6,200.7 377.4,179.3 381.2,160.4 385.0,169.0 388.8,152.4 392.6,147.0 396.4,156.6 400.1,171.0 403.9,168.2 407.7,175.3 411.5,151.5 415.3,152.4 419.1,144.6 422.9,146.2 426.7,173.5 430.5,157.0 434.3,166.7 438.1,154.6 441.8,145.4 445.6,156.6 449.4,157.7 453.2,163.4 457.0,144.8 460.8,147.9 464.6,157.3 468.4,136.0 472.2,147.5 475.9,131.2 479.7,192.6 483.5,139.1 487.3,125.9 491.1,129.8 494.9,131.6 498.7,127.6 502.5,132.5 506.3,165.8 510.1,147.6 513.8,127.0 517.6,131.7 521.4,133.3 525.2,139.0 529.0,131.1 532.8,122.9 536.6,126.2 540.4,125.7 544.2,120.2 548.0,127.6 551.8,133.0 555.5,109.1 559.3,111.7 563.1,117.1 566.9,115.6 570.7,131.5 574.5,128.4 578.3,199.9 582.1,173.4 585.9,231.2 589.7,187.0 593.4,175.6 597.2,167.4 601.0,179.7 604.8,152.5 608.6,147.0 612.4,156.3 616.2,157.0 620.0,158.0 623.8,145.1 627.5,137.3 631.3,141.0 635.1,140.3 638.9,143.1 642.7,157.6 646.5,131.6 650.3,137.3 654.1,132.3 657.9,130.0 661.7,135.8 665.5,122.2 669.2,128.4 673.0,132.8 676.8,112.2 680.6,120.2 684.4,99.8 688.2,104.7 692.0,107.3 695.8,106.0 699.6,98.0 703.4,101.0 707.1,123.8 710.9,104.0 714.7,97.2 718.5,113.5 722.3,103.9 726.1,99.6 729.9,83.3 733.7,86.4 737.5,94.6 741.2,89.6 745.0,82.3 748.8,84.5 752.6,83.2 756.4,84.5 760.2,86.5 764.0,75.4 767.8,68.6 771.6,78.6 775.4,79.3 779.1,86.8 782.9,79.6 786.7,74.3 790.5,90.9 794.3,84.1 798.1,82.5 801.9,102.1 805.7,84.7 809.5,93.1 813.3,82.5 817.0,87.9 820.8,89.2 824.6,95.9 828.4,103.8 832.2,83.2" />
<text x="78.0" y="424.0" text-anchor="middle" font-size="11" font-family="Arial">0k</text>
<text x="267.5" y="424.0" text-anchor="middle" font-size="11" font-family="Arial">50k</text>
<text x="457.0" y="424.0" text-anchor="middle" font-size="11" font-family="Arial">100k</text>
<text x="646.5" y="424.0" text-anchor="middle" font-size="11" font-family="Arial">150k</text>
<text x="836.0" y="424.0" text-anchor="middle" font-size="11" font-family="Arial">200k</text>
<text x="70.0" y="48.0" text-anchor="end" font-size="11" font-family="Arial">987</text>
<text x="70.0" y="137.0" text-anchor="end" font-size="11" font-family="Arial">732</text>
<text x="70.0" y="226.0" text-anchor="end" font-size="11" font-family="Arial">476</text>
<text x="70.0" y="315.0" text-anchor="end" font-size="11" font-family="Arial">221</text>
<text x="70.0" y="404.0" text-anchor="end" font-size="11" font-family="Arial">-33</text>
<line x1="700.0" y1="72.0" x2="728.0" y2="72.0" stroke="#1f77b4" stroke-width="2.5"/>
<text x="736.0" y="76.0" font-size="12" font-family="Arial">PEBBLE</text>
<line x1="700.0" y1="94.0" x2="728.0" y2="94.0" stroke="#d62728" stroke-width="2.5"/>
<text x="736.0" y="98.0" font-size="12" font-family="Arial">OURS</text>
<text x="430.0" y="446.0" text-anchor="middle" font-size="12" font-family="Arial">Environment Steps</text>
<text x="22" y="230.0" text-anchor="middle" font-size="12" font-family="Arial" transform="rotate(-90 22 230.0)">Training Episode Reward</text>
</svg>